<?xml version="1.0" standalone="no"?>
<!DOCTYPE svg PUBLIC "-//W3C//DTD SVG 20010904//EN"
 "http://www.w3.org/TR/2001/REC-SVG-20010904/DTD/svg10.dtd">
<svg version="1.0" xmlns="http://www.w3.org/2000/svg"
 width="580.000000pt" height="580.000000pt" viewBox="0 0 580.000000 580.000000"
 preserveAspectRatio="xMidYMid meet">
<metadata>
Created by potrace 1.14, written by Peter Selinger 2001-2017
</metadata>
<g transform="translate(0.000000,580.000000) scale(0.100000,-0.100000)"
fill="#000000" stroke="none">
<path d="M713 5765 c36 -31 173 -89 267 -113 30 -7 35 -12 35 -38 0 -25 -3
-29 -25 -26 -54 6 -579 7 -585 0 -15 -15 28 -69 82 -102 55 -35 165 -76 203
-76 29 0 71 -40 68 -63 -4 -25 -54 -40 -109 -31 -32 5 -39 2 -59 -26 -12 -17
-45 -42 -73 -57 -99 -49 -197 -128 -197 -157 0 -3 23 2 51 10 28 9 57 13 64
10 8 -3 45 4 84 15 75 21 168 23 164 2 -2 -6 20 -16 49 -23 29 -6 77 -21 107
-35 31 -13 68 -26 84 -29 23 -5 27 -12 27 -39 0 -69 -20 -110 -86 -174 -66
-65 -65 -73 5 -53 19 5 36 8 38 6 2 -1 -2 -29 -9 -60 -9 -48 -17 -63 -51 -89
-44 -36 -62 -66 -72 -120 l-7 -37 91 0 91 0 0 -52 c0 -70 12 -53 19 28 l6 66
43 -75 c36 -63 107 -146 117 -135 6 7 55 135 55 144 0 6 -13 28 -29 50 -64 88
-191 364 -167 364 15 0 64 -30 69 -42 4 -9 6 -8 6 2 1 8 10 21 20 27 39 24 56
106 54 256 -2 75 0 137 4 137 3 0 24 -5 45 -12 l40 -12 -6 -95 c-4 -53 -9
-116 -12 -141 -3 -30 0 -51 9 -64 14 -18 16 -18 85 9 55 21 81 27 117 22 77
-8 72 -20 -28 -62 -130 -54 -152 -69 -175 -119 -29 -62 -57 -67 -101 -19 l-33
38 28 -54 c21 -40 37 -57 57 -62 15 -4 48 -28 73 -54 40 -42 44 -50 38 -78
-10 -49 -80 -203 -130 -289 -46 -78 -52 -100 -39 -130 6 -15 2 -18 -18 -18
-29 0 -57 -33 -57 -66 0 -35 31 -52 126 -67 100 -16 147 -36 165 -69 11 -21
12 -21 26 8 9 16 33 48 56 71 30 32 40 49 39 73 -1 34 -43 107 -68 117 -53 20
-66 175 -23 278 7 17 12 33 11 37 -2 10 70 68 86 68 7 0 33 19 59 43 49 44 49
41 -4 -37 -40 -58 -41 -66 -7 -66 19 0 41 17 82 62 32 34 71 77 89 95 l32 34
49 -25 c60 -31 76 -48 67 -78 -4 -13 -39 -76 -78 -142 -115 -193 -141 -278
-96 -308 20 -13 22 -23 21 -109 0 -52 -7 -118 -15 -149 -8 -30 -18 -96 -21
-147 -6 -86 -5 -93 16 -112 12 -12 25 -21 30 -21 21 0 48 -42 48 -75 0 -33 -2
-35 -52 -50 -28 -8 -58 -15 -66 -15 -8 0 -30 -11 -48 -25 -43 -33 -87 -42
-105 -22 -12 13 -16 9 -26 -27 -27 -88 -7 -153 66 -219 51 -46 84 -54 267 -67
174 -11 271 -36 303 -76 11 -14 32 -62 47 -107 34 -105 43 -122 98 -190 39
-47 46 -62 46 -100 0 -60 15 -101 64 -171 38 -56 41 -58 44 -33 2 15 -6 51
-17 81 -27 74 -18 106 36 125 40 14 41 16 80 125 66 182 92 279 122 451 12 65
99 275 128 307 25 27 31 10 43 -123 10 -111 9 -195 -5 -330 -7 -61 -1 -97 22
-159 7 -18 7 -19 27 -99 8 -36 13 -68 10 -73 -3 -4 -1 -8 5 -8 5 0 13 -14 16
-31 5 -23 9 -28 16 -18 6 10 9 11 9 1 0 -7 11 -25 24 -40 58 -64 65 -75 71
-102 6 -26 11 -29 65 -35 32 -4 72 -4 87 -1 41 9 120 81 128 116 8 35 -24 112
-63 153 -25 26 -27 35 -26 110 1 162 57 307 93 240 11 -23 31 -149 31 -202 0
-94 53 -132 193 -136 72 -3 106 -9 157 -30 92 -38 158 -57 188 -55 71 5 88
-13 25 -25 -47 -8 -133 -45 -133 -56 0 -4 -8 -10 -18 -13 -10 -3 -18 -15 -19
-26 -2 -23 13 -25 86 -9 27 5 69 9 93 7 l43 -3 -86 -47 c-77 -42 -247 -108
-279 -108 -10 0 -10 4 0 15 19 23 0 38 -31 26 -13 -5 -51 -30 -83 -54 -113
-86 -361 -231 -683 -400 -192 -100 -262 -154 -381 -287 -151 -171 -165 -184
-240 -223 -40 -20 -77 -37 -83 -37 -5 0 7 21 26 48 20 26 65 91 101 146 35 54
95 140 133 190 69 91 95 146 71 146 -20 0 -113 -103 -160 -178 -136 -217 -144
-227 -172 -225 -25 2 -32 -6 -75 -94 l-48 -97 -100 -50 c-124 -63 -127 -64
-305 -201 -80 -61 -194 -145 -255 -186 -140 -94 -190 -142 -203 -194 -6 -22
-18 -93 -26 -158 -8 -64 -21 -129 -28 -143 -9 -17 -37 -35 -88 -58 -113 -48
-383 -236 -394 -273 -2 -10 -8 -37 -11 -60 l-7 -43 2661 0 2661 0 0 2900 0
2900 -710 0 c-463 0 -709 -4 -705 -10 3 -6 15 -10 25 -10 25 0 36 -20 19 -31
-9 -6 -2 -8 23 -6 20 1 34 5 32 8 -2 4 10 12 27 19 24 10 35 10 53 0 28 -14
98 -4 75 11 -10 6 -5 9 16 8 43 -1 115 -20 116 -30 1 -5 2 -15 3 -21 1 -14
-96 -39 -104 -26 -3 4 -32 11 -64 16 -54 9 -57 8 -53 -9 4 -13 0 -19 -11 -20
-10 0 -2 -5 16 -10 30 -9 32 -12 20 -26 -7 -9 -8 -14 -3 -11 6 4 21 0 35 -8
l25 -15 -27 5 c-20 5 -28 2 -33 -13 -3 -11 -13 -22 -21 -25 -9 -3 -12 -2 -8 5
3 6 -3 5 -14 -2 -18 -12 -19 -14 -5 -36 9 -14 11 -23 4 -23 -5 0 -1 -16 10
-35 12 -19 17 -35 12 -35 -4 0 -1 -5 7 -10 12 -8 11 -10 -5 -10 -33 0 -45 -18
-33 -51 5 -16 8 -36 4 -44 -3 -8 -1 -17 5 -20 5 -4 7 -10 4 -14 -2 -5 3 -17
13 -27 14 -16 26 -18 72 -13 30 3 44 7 30 8 -16 2 -19 5 -10 8 8 2 29 11 47
19 37 17 54 18 33 3 -12 -9 -11 -10 7 -6 23 5 23 7 23 -77 0 -29 5 -53 12 -58
10 -6 10 -8 1 -8 -17 0 -17 -32 -1 -48 10 -10 10 -15 -2 -22 -12 -7 -10 -11
10 -19 22 -8 22 -10 5 -11 -15 0 -17 -2 -6 -9 11 -7 11 -10 0 -15 -10 -4 -11
-7 -2 -12 7 -3 10 -11 7 -19 -7 -17 25 -35 63 -36 l28 -1 -25 -8 -25 -8 25 -2
25 -1 -23 -10 c-40 -15 -271 -12 -332 5 -62 18 -178 21 -229 6 -19 -5 -44 -19
-56 -30 l-22 -20 24 102 c12 57 23 110 23 119 0 38 -186 209 -227 209 -31 0
-5 -91 57 -201 11 -20 18 -43 14 -52 -5 -15 -10 -15 -38 -3 -18 8 -51 17 -72
20 -38 7 -41 11 -93 109 -87 164 -130 218 -270 334 -99 82 -150 116 -236 158
-60 29 -132 58 -160 64 -105 24 -266 30 -717 31 l-467 0 -33 -34 c-44 -44 -82
-51 -115 -20 -41 38 -83 32 -130 -17 -59 -63 -225 -139 -262 -119 -19 10 -89
85 -108 116 -11 17 -12 15 -12 -17 -1 -27 8 -48 34 -80 19 -24 35 -49 35 -56
0 -7 -21 -27 -47 -44 -27 -18 -61 -43 -76 -56 -16 -13 -35 -23 -43 -23 -19 0
-18 41 2 88 21 49 63 212 55 212 -3 0 -22 -33 -41 -72 -19 -40 -40 -74 -46
-76 -6 -1 -32 13 -58 33 -25 19 -51 35 -56 35 -6 0 -10 -25 -10 -56 0 -40 -3
-54 -12 -51 -9 2 -13 25 -14 63 0 42 -8 76 -27 117 l-27 57 -60 0 c-52 0 -59
-2 -53 -17 7 -17 6 -17 -20 0 -21 14 -48 17 -134 17 l-108 -1 38 -34z m3915
-57 c-3 -7 -13 -15 -23 -16 -15 -4 -16 -2 -4 12 17 19 32 21 27 4z m100 -56
c6 -18 -15 -14 -22 4 -4 10 -1 14 6 12 6 -2 14 -10 16 -16z m-3558 -102 c0 -5
-4 -10 -10 -10 -5 0 -10 5 -10 10 0 6 5 10 10 10 6 0 10 -4 10 -10z m-150 -63
c0 -45 21 -70 93 -112 l62 -36 -67 4 c-52 4 -81 12 -125 37 -32 18 -60 34 -62
36 -5 4 82 103 92 104 4 0 7 -15 7 -33z m890 23 c10 -6 12 -12 4 -20 -7 -7
-20 -7 -42 3 -18 7 -29 16 -25 20 9 10 45 8 63 -3z m745 -25 c31 -8 67 -15 80
-15 14 0 25 -3 25 -6 0 -3 -35 -44 -77 -90 l-78 -85 -60 5 c-65 5 -142 33
-164 59 -11 14 -9 23 13 61 14 24 40 56 58 71 29 25 37 27 90 21 31 -4 82 -13
113 -21z m518 -149 c67 -24 105 -73 50 -64 -41 7 -185 48 -197 56 -6 4 7 10
29 13 63 10 78 9 118 -5z m-2306 -36 c47 0 93 11 87 21 -9 15 6 10 23 -6 25
-25 8 -43 -54 -55 -32 -7 -73 -21 -92 -31 -50 -29 -61 -20 -61 52 l0 61 34
-21 c18 -12 47 -21 63 -21z m2102 0 c54 -27 118 -86 107 -97 -9 -9 -166 75
-226 121 l-25 18 43 -6 c24 -4 70 -20 101 -36z m-1209 0 c19 -5 26 -15 32 -48
4 -22 12 -50 18 -62 18 -33 -19 -25 -88 19 -62 41 -82 72 -62 96 11 14 33 13
100 -5z m860 -106 c0 -8 -4 -14 -10 -14 -5 0 -10 9 -10 21 0 11 5 17 10 14 6
-3 10 -13 10 -21z m168 -56 c5 -7 15 -35 21 -63 6 -27 13 -60 17 -72 6 -22 4
-23 -55 -23 -68 0 -116 16 -145 48 -18 21 -18 21 10 48 70 64 130 89 152 62z
m1245 -222 c23 -13 58 -27 77 -31 l34 -7 -28 -24 c-30 -27 -13 -33 22 -8 18
12 22 13 22 1 0 -17 53 -33 138 -43 64 -7 72 -13 48 -33 -8 -7 -33 -41 -56
-77 -23 -35 -46 -64 -50 -64 -16 0 -90 61 -90 75 0 8 4 15 8 15 5 0 16 6 26
13 16 12 13 15 -32 40 -27 15 -54 27 -59 27 -6 0 -15 -18 -22 -40 -20 -69 -48
-47 -75 58 -16 60 -21 122 -10 122 3 0 24 -11 47 -24z m659 -99 c4 -6 7 -25 5
-41 -3 -24 -10 -32 -38 -41 -32 -11 -33 -12 -11 -19 13 -4 21 -10 19 -13 -7
-7 60 -69 112 -103 53 -36 75 -71 57 -95 -11 -15 -16 -15 -62 3 -28 11 -95 25
-150 32 -100 11 -149 31 -149 61 0 8 -8 22 -19 31 -17 17 -17 18 4 48 15 20
25 28 30 21 4 -8 19 0 44 22 38 35 37 45 -8 61 -26 9 -14 18 47 38 55 18 106
16 119 -5z m-3222 -31 c0 -16 -14 -36 -26 -36 -14 0 -19 22 -7 33 7 8 33 10
33 3z m2899 -115 c19 -12 4 -51 -20 -51 -25 0 -35 25 -19 45 14 17 20 18 39 6z
m-2890 -37 c10 -22 9 -25 -6 -22 -10 2 -19 13 -21 26 -5 30 12 28 27 -4z
m3391 -213 c0 -5 8 -12 18 -14 11 -3 8 -5 -9 -6 -15 0 -32 6 -39 14 -10 13 -9
15 9 15 11 0 21 -4 21 -9z m-2368 -34 c-22 -23 -29 -52 -14 -60 4 -3 25 1 47
9 61 21 67 18 44 -20 -18 -31 -19 -39 -8 -75 11 -36 10 -43 -6 -61 -24 -26
-79 -26 -104 -1 -32 32 -36 82 -12 135 24 56 61 109 69 102 3 -4 -4 -16 -16
-29z m2358 -7 c0 -5 -4 -10 -10 -10 -5 0 -10 5 -10 10 0 6 5 10 10 10 6 0 10
-4 10 -10z m-556 -29 c22 -24 14 -55 -22 -93 -39 -42 -57 -37 -74 25 l-15 52
28 3 c15 2 33 10 39 18 16 19 23 18 44 -5z m101 -48 c8 -10 28 -36 44 -59 20
-28 39 -43 61 -48 44 -8 90 -8 90 2 0 21 142 54 153 34 4 -5 -1 -31 -9 -56
-15 -45 -15 -48 2 -61 11 -8 27 -15 36 -15 20 0 35 -20 16 -21 -10 0 -11 -2 0
-6 8 -3 10 -9 4 -16 -9 -11 -23 -83 -24 -117 0 -8 3 -32 6 -52 7 -43 3 -47
-71 -64 l-53 -12 0 29 c0 43 -16 35 -48 -21 -18 -34 -35 -52 -52 -56 -14 -3
-30 -7 -37 -9 -19 -6 -83 -97 -89 -127 -4 -16 -8 -28 -9 -28 -1 0 -21 18 -43
40 -64 64 -86 47 -32 -24 33 -44 37 -61 16 -69 -16 -6 -46 22 -46 43 0 7 -18
58 -40 112 -22 55 -40 111 -40 123 0 25 36 60 73 71 35 10 77 55 77 83 0 13
-12 58 -26 99 -26 77 -29 132 -4 80 15 -32 30 -37 30 -10 0 33 20 42 57 27 43
-18 43 -3 -1 25 -37 22 -76 76 -76 104 0 21 16 20 35 -1z m-3088 -169 c4 -11
-1 -22 -12 -30 -20 -15 -115 -19 -115 -6 0 9 86 49 108 51 7 1 15 -6 19 -15z
m642 -255 c-11 -6 -10 -9 4 -15 27 -10 21 -27 -40 -109 -31 -42 -59 -88 -60
-103 -6 -45 -24 -80 -43 -85 -11 -3 -19 -2 -18 2 1 3 -3 16 -10 29 -18 32 -22
116 -8 165 9 32 23 48 66 78 30 21 63 39 73 39 9 0 17 4 17 10 0 5 7 7 16 3
12 -4 13 -7 3 -14z m2273 -200 c21 -20 38 -43 38 -50 0 -7 -12 -2 -27 13 -34
32 -73 48 -119 48 -37 0 -43 15 -24 65 l10 26 42 -33 c23 -18 59 -49 80 -69z
m-322 -106 c11 6 22 8 25 5 4 -3 -3 -48 -14 -100 -11 -51 -29 -154 -40 -228
-31 -208 -30 -267 2 -203 42 81 139 322 148 366 5 28 11 52 13 54 8 8 86 -74
86 -90 0 -26 17 -20 24 9 4 14 27 63 52 108 44 80 44 81 42 41 -1 -22 7 -81
17 -130 10 -50 15 -102 12 -116 -3 -14 -25 -54 -48 -89 -23 -35 -42 -70 -43
-77 -1 -6 -10 -20 -19 -31 -36 -39 -1 -31 41 10 l44 43 -29 -60 c-26 -54 -49
-89 -79 -119 -9 -8 -4 -20 19 -46 42 -48 121 -110 141 -110 9 0 16 -6 16 -13
0 -7 12 -14 28 -15 31 -2 76 -19 110 -41 13 -8 37 -16 53 -18 17 -1 42 -9 57
-17 15 -8 46 -17 67 -21 107 -19 178 -57 160 -85 -3 -6 -1 -10 6 -10 7 0 9 -3
6 -7 -4 -3 -2 -12 3 -19 6 -6 10 -16 9 -20 -4 -21 2 -44 14 -56 6 -7 12 -30
12 -50 l0 -37 -23 22 c-12 11 -36 42 -53 68 -20 32 -44 54 -74 68 -25 12 -45
26 -45 33 0 6 -3 9 -6 5 -3 -3 -23 3 -44 14 -41 22 -231 82 -410 130 -217 58
-243 72 -353 179 -106 102 -173 197 -226 320 -29 67 -31 80 -24 125 7 41 14
52 37 64 40 19 92 3 89 -27 l-3 -22 30 21 c26 20 60 86 94 182 6 18 7 18 32
-2 21 -16 29 -18 44 -8z m-1210 -1807 c0 -10 -300 -136 -323 -136 -19 0 24 37
70 61 77 39 253 91 253 75z"/>
<path d="M4750 2626 c0 -2 9 -6 20 -9 11 -3 18 -1 14 4 -5 9 -34 13 -34 5z"/>
<path d="M4515 5737 c19 -14 18 -15 -10 -10 -23 4 -27 3 -19 -7 15 -16 49 -9
49 10 0 8 -9 16 -20 18 -20 4 -20 4 0 -11z"/>
<path d="M1343 3799 c-21 -21 -15 -42 23 -82 33 -35 38 -37 77 -32 23 4 44 11
45 16 2 5 10 9 18 9 20 0 54 37 54 59 0 24 -13 28 -120 36 -63 5 -88 3 -97 -6z"/>
<path d="M1382 3648 c-23 -23 -13 -64 28 -111 22 -25 40 -55 40 -67 0 -19 3
-20 15 -10 24 20 65 101 65 129 0 50 -25 71 -84 71 -28 0 -57 -5 -64 -12z"/>
<path d="M3638 2513 c6 -2 18 -2 25 0 6 3 1 5 -13 5 -14 0 -19 -2 -12 -5z"/>
<path d="M3620 2479 c-25 -3 -56 -11 -70 -17 -24 -10 -24 -11 -3 -11 12 -1 25
4 28 9 3 6 32 10 63 11 31 0 66 4 77 9 16 7 13 9 -15 7 -19 -1 -55 -4 -80 -8z"/>
<path d="M3536 2425 c4 -8 10 -12 15 -9 11 6 2 24 -11 24 -5 0 -7 -7 -4 -15z"/>
</g>
</svg>
